<svg xmlns="http://www.w3.org/2000/svg" width="580" height="580" viewBox="0 0 580 580"><rect style="fill:#5c0000" width="580" height="580"/><g style="fill:#FFF" transform="translate(46,190)"><path d="M 109.49106,200 V 0 h 37.68913 V 200 Z M 0,200 V 0 H 37.689133 V 200 Z M 17.469051,118.98212 V 82.6685 H 133.97524 v 36.31362 z"/><path d="m 184.50619,200 v -36.31362 h 63.82393 q 12.92985,0 19.94498,-6.18982 7.15269,-6.32737 7.15269,-17.6066 v -0.41266 q 0,-11.41678 -7.15269,-17.6066 -7.01513,-6.32737 -19.94498,-6.32737 H 184.50619 V 79.229711 h 63.82393 q 11.69189,0 18.01926,-5.914717 6.46492,-5.91472 6.46492,-16.643744 v 0 q 0,-9.76616 -6.46492,-14.99312 -6.32737,-5.364513 -18.01926,-5.364513 H 184.50619 V 0 h 65.0619 q 29.16093,0 45.11692,14.167813 16.09353,14.167813 16.09353,40.027509 v 0 q 0,17.469052 -10.31637,28.885832 -10.17881,11.279232 -28.88583,14.442918 19.94498,2.751028 30.81155,15.268228 11.00413,12.37964 11.00413,32.32462 v 0.41265 q 0,25.99725 -16.09353,40.30262 Q 281.20495,200 251.90646,200 Z M 168,200 V 0 h 37.68913 v 200 z"/><path d="m 421.38281,0 a 100,100 0 0 0 -100,100 100,100 0 0 0 100,100 A 100,100 0 0 0 500,161.42188 L 470.12109,138.07812 A 62,62 0 0 1 421.38281,162 a 62,62 0 0 1 -62,-62 62,62 0 0 1 62,-62 62,62 0 0 1 47.47266,22.164062 L 497.9707,35.734375 A 100,100 0 0 0 421.38281,0 Z"/></g></svg>